# xmcd
#
# Track frame offsets:
#	150
#	9226
#	22577
#	32022
#	41392
#	58321
#	67307
#	85243
#	101053
#	111416
#	122291
#	133621
#	150341
#	172111
#
# Disc length: 2605 seconds
#
# Revision: 1
# Processed by: cddbd v1.5.2PL0 Copyright (c) Steve Scherf et al.
# Submitted via: audiograbber 1.83.01
#
DISCID=ae0a2b0e
DTITLE=Travelling Country Band - Well Travelled
DYEAR=2002
DGENRE=Country
TTITLE0=Back Up And Push
TTITLE1=I'm A Fool To Care
TTITLE2=Catgut Creek
TTITLE3=I Can't Help It
TTITLE4=Maiden's Prayer
TTITLE5=Uncle Pen
TTITLE6=Sit Awhile
TTITLE7=West Along The Road
TTITLE8=Out The Window
TTITLE9=Drowning My Blues
TTITLE10=I Ain't Got Nobody
TTITLE11=Morning Mail
TTITLE12=Orange Blossom Special
TTITLE13=Been A Fool Too Long
EXTD=The Travelling Country Band was Slim Disty's backing band on tour. The TCB
EXTD=were Jeff Mercer, Robbie Souter, Rod Coe, Mike Kerin and Peter Denahy.
EXTT0=
EXTT1=
EXTT2=
EXTT3=
EXTT4=
EXTT5=
EXTT6=
EXTT7=
EXTT8=
EXTT9=
EXTT10=
EXTT11=
EXTT12=
EXTT13=
PLAYORDER=
